<?xml version="1.0" encoding="utf-8"?>
<!-- Generator: Adobe Illustrator 19.0.0, SVG Export Plug-In . SVG Version: 6.00 Build 0)  -->
<svg version="1.1" id="レイヤー_1" xmlns="http://www.w3.org/2000/svg" xmlns:xlink="http://www.w3.org/1999/xlink" x="0px"
	 y="0px" viewBox="0 0 71 72" style="enable-background:new 0 0 71 72;" xml:space="preserve">
<style type="text/css">
	.st0{fill:#2EC800;}
</style>
<g>
	<path class="st0" d="M71,12c0,1,0,2,0,3c-5.81,1.07-11.58,2.61-17.43,3.08c-5.86,0.47-7.46,2.36-5.46,8.15
		c0.97,2.81,2.37,5.69,2.46,8.57c0.45,14.72-4.71,31.2-22.84,36.04C26.77,71.08,25.9,71.61,25,72c-4.33,0-8.67,0-13,0
		c-5.55-2.45-9.47-6.53-12-12c0-4.33,0-8.67,0-13c2.22-5.34,4.49-10.67,6.66-16.03c5.25-12.96,13.46-17.43,27.16-14.54
		c2.82,0.59,5.55,1.66,8.32,2.5c0.28-0.33,0.55-0.67,0.83-1c-1.18-1.31-2.12-3.13-3.59-3.83c-2.65-1.25-5.57-2.11-8.47-2.64
		C22.77,9.98,21.21,7.11,25,0c3.33,0,6.67,0,10,0c3.84,3.99,7.68,7.97,11.75,12.2c0.32-0.19,1.03-0.55,1.69-1
		C58.91,3.95,61.59,4.05,71,12z M28.02,59.88c1.05,3.39,2.97,4.9,7.22,4.09c4.6-0.87,5.29-3.65,5.87-7.28
		c0.82-5.08,1.91-10.12,2.87-15.18c0.48-2.55,1.02-5.05-2.87-5.43c-3.34-0.32-6.35-0.72-6.9,3.97c-0.45,3.86-1.36,7.67-2.02,11.2
		c-2.48-2.27-4.74-5.92-6.82-5.82c-2.45,0.12-4.75,3.49-7.39,5.68c-0.26-3.71-0.41-7.66-0.84-11.58c-0.52-4.83-4.28-2.98-6.98-3.1
		c-2.86-0.13-3.78,1.38-3.25,4.13c0.96,4.89,1.78,9.81,2.68,14.71c1.65,9.03,1.85,9.33,10.92,8.11
		C22.92,63.06,25.11,61.29,28.02,59.88z M23.3,23.47c0.07,0.6,0.14,1.19,0.21,1.79c-2.17,0.58-4.48,0.89-6.48,1.85
		c-1.45,0.7-2.48,2.27-3.7,3.45c1.38,1.23,2.68,3.35,4.17,3.5c3.32,0.33,6.74-0.33,10.37-0.6c-0.39-4.85,1.8-10.02-4.04-12.12
		c-3.07-1.11-6.37-0.82-9.87,2.6C18.04,23.73,20.67,23.6,23.3,23.47z M37.74,20.4c-0.52,0-1.04,0.01-1.56,0.01
		c0,4.29,0,8.57,0,12.86c0.52,0,1.04-0.01,1.56-0.01C37.74,28.97,37.74,24.68,37.74,20.4z M33.12,20.41
		c-0.64,0.01-1.27,0.01-1.91,0.02c-1.06,4.3-1.25,8.56,0.32,12.75c0.53-0.02,1.06-0.03,1.59-0.05
		C33.12,28.89,33.12,24.65,33.12,20.41z"/>
	<path class="st0" d="M24.36,30.72c-2.29,0.44-4.57,0.89-6.86,1.33c-0.18-0.82-0.36-1.65-0.54-2.47c2.25-0.53,4.51-1.07,6.76-1.6
		C23.94,28.9,24.15,29.81,24.36,30.72z"/>
</g>
</svg>
